<svg xmlns="http://www.w3.org/2000/svg" viewBox="0 0 100 100"><g id="Layer_2" data-name="Layer 2"><g id="Sixth_Iteration" data-name="Sixth Iteration"><circle cx="50" cy="50" r="50" fill="#f09c22"/><path d="M48.17,74.33c-3.36-.25-6.31-.64-8.93-1.09a9.19,9.19,0,0,0,17.93,1.34A89.75,89.75,0,0,1,48.17,74.33Z" fill="#fff"/><path d="M52,23.83a19.1,19.1,0,0,1,5.44,1.24l0-.32a5.52,5.52,0,0,0-11-.83l0,.32A19,19,0,0,1,52,23.83Z" fill="#fff"/><path d="M34.05,41.43a16.55,16.55,0,0,1,33,2.48l-.25,3.36a23.8,23.8,0,0,0,3.4,14.18l4.22,7S68,73.47,48.35,72,23.1,64.57,23.1,64.57l5.22-6.26A23.89,23.89,0,0,0,33.8,44.79Z" fill="#fff"/></g></g></svg>