<svg xmlns="http://www.w3.org/2000/svg" xmlns:xlink="http://www.w3.org/1999/xlink" viewBox="0 0 150 150"><defs><linearGradient id="linear-gradient" x1="24.2" y1="18.14" x2="129.44" y2="135.94" gradientUnits="userSpaceOnUse"><stop offset="0" stop-color="#3c4865"/><stop offset="1" stop-color="#2c2e35"/></linearGradient></defs><g id="Layer_2" data-name="Layer 2"><g id="Sixth_Iteration" data-name="Sixth Iteration"><path d="M150,75c0,9.48-12.5,16.32-15.95,24.55-3.55,8.5.19,22.33-6.25,28.71s-20,2.27-28.45,5.75c-8.14,3.35-15,16-24.35,16s-16.21-12.64-24.35-16c-8.48-3.48-22,.6-28.45-5.75s-2.7-20.21-6.26-28.71C12.5,91.32,0,84.48,0,75S12.5,58.68,15.94,50.45c3.56-8.5-.18-22.33,6.26-28.72s20-2.26,28.45-5.74C58.79,12.64,65.65,0,75,0S91.21,12.64,99.35,16c8.48,3.48,22-.6,28.45,5.74s2.7,20.22,6.25,28.72C137.5,58.68,150,65.52,150,75Z" fill="url(#linear-gradient)"/></g></g></svg>