<svg xmlns="http://www.w3.org/2000/svg" viewBox="0 0 50 50"><g id="Layer_2" data-name="Layer 2"><g id="Sixth_Iteration" data-name="Sixth Iteration"><rect width="50" height="50" fill="none"/><path d="M8.16,19.57h0L9,19.39h.07q.4-.09.81-.15l.08,0L11.53,19a22.32,22.32,0,0,1,14.8,2.62h0c.36.18.7.35,1.05.51a19,19,0,0,0-3.7-9.55l-.27-.05A73.15,73.15,0,0,0,14,11.14a.65.65,0,0,0-.62.34h0c-1.18,2.12-3.33,4.18-5.83,7a0,0,0,0,0,0,0A.65.65,0,0,0,8.16,19.57Zm15.7-6.78a.38.38,0,0,0-.11-.11A.38.38,0,0,1,23.86,12.79Z" fill="#3d4975"/><path d="M6.93,21.63l.26.19c.22.14.43.29.64.44l.36.26.52.38.56.44c.18-.23.35-.45.53-.66l.55-.68c.13-.14.25-.29.37-.43l.56-.65,1.17-1.29-1.34.21h0l-.08,0h0c-.46.08-.93.18-1.42.28l-.18,0-1.5.36-.21.06-.61.16-.05,0A.48.48,0,0,0,6.93,21.63Z" fill="#3d4975"/><path d="M21.3,25.76c0-.67-.06-1.45-.06-1.45-.38.26-.77.55-1.15.86l0,0a20,20,0,0,0-3,3.08l0,.06c-.39.51-.78,1.05-1.16,1.64l0,0c-.24.38-.48.78-.71,1.2l0,.05-.22.38,0,.08a1.28,1.28,0,0,1-.11.2,2.33,2.33,0,0,1,.07.25.07.07,0,0,1,0,0,48.91,48.91,0,0,0,4.53,11.19l0,0a.76.76,0,0,0,.64.36l8.35,0a.76.76,0,0,0,.56-1.28C22.3,35.31,21.51,30.05,21.3,25.76Z" fill="#f09c22"/><path d="M43.18,20.15h0c-.22-.15-.42-.31-.62-.47h0c-.2-.16-.39-.33-.57-.5v0a6,6,0,0,1-.5-.51l0,0c-.16-.18-.31-.36-.46-.55l0,0c-.14-.18-.28-.37-.41-.57l0-.05c-.14-.2-.27-.42-.4-.64v0c-.12-.21-.24-.44-.36-.66l0-.07c-.12-.25-.24-.49-.36-.76h0a.77.77,0,0,0-1.4,0h0c-.19.43-.39.84-.59,1.24h0c-.19.4-.39.78-.59,1.15l0,.05a26.39,26.39,0,0,1-9.41,10.17h0c-.43.27-.86.52-1.27.76.45.21.93.41,1.42.6h0l.4.15.37.12.37.12.48.14.31.08.82.19.22,0,.7.12.31,0,.7.08.29,0,1,.05h0a23.42,23.42,0,0,0,2.6-.08h0l.29,0,.2-.21h0l.1-.12c.24-.24.48-.5.72-.76l0,0a48.61,48.61,0,0,0,3.18-3.89l.24-.33c.2-.26.39-.54.58-.81l.32-.47.53-.79.35-.55c.17-.27.34-.54.5-.81l.23-.36v0A.77.77,0,0,0,43.18,20.15Z" fill="#d83968"/><path d="M22.33,22.4a1.27,1.27,0,0,0,.12-.1c.46-.3.93-.57,1.38-.83-.49-.22-1-.44-1.54-.64l-.15-.08a17.65,17.65,0,0,0-5.38-1H15.57l-.67,0-.85.06h-.21a.88.88,0,0,0-.55.27,50.31,50.31,0,0,0-6.66,8.82.92.92,0,0,0,.26,1.22,10.79,10.79,0,0,1,3.58,4.54.93.93,0,0,0,1.52.23,1,1,0,0,0,.16-.24A27.09,27.09,0,0,1,22.33,22.4Z" fill="#57a38c"/><path d="M41.3,30.55h0c-9.27,1.93-13.66-.14-17.43-2h0l-1.41-.69c0,.51.11,1,.21,1.56,0,0,0,0,0,0s.05.27.08.4a2.38,2.38,0,0,0,.05.26c0,.14.07.29.1.44s.07.26.1.38.11.41.18.61.08.28.13.42.09.26.13.39.18.47.28.7a2.17,2.17,0,0,0,.15.35c.07.19.16.37.24.56l.15.31c.13.26.27.53.42.8l.18.33.45.77.18.27c.16.26.34.52.52.79l.11.17,0,0,.18.25.33.06a76.76,76.76,0,0,0,9.17,1.32.84.84,0,0,0,.81-.43l.33-.55c.1-.16.2-.32.31-.48h0A66.35,66.35,0,0,1,42.11,32,.86.86,0,0,0,41.3,30.55Z" fill="#e6542a"/><path d="M20.85,7.33c6.48,7,7.47,12.16,7.74,16.39,0,0,0,.05,0,.08,0,.67.07,1.32.09,1.94A20.77,20.77,0,0,0,35.28,18l-.13-.42a49,49,0,0,0-4.4-10.87,1.06,1.06,0,0,0-.9-.54H21.31a.67.67,0,0,0-.48,1.12Z" fill="#5abdbd"/><path d="M19.56,8c0,.27,0,.52.05.76a1.7,1.7,0,0,1,0,.22c0,.3,0,.6,0,.88V10c0,.29,0,.57-.07.83,1.36.2,2.65.41,3.89.61l-.39-.5,0-.05c-.11-.15-.24-.3-.36-.45l-.15-.19c-.58-.71-1.22-1.44-1.9-2.18l-.18-.19L20,7.37s0,0,0,0a.27.27,0,0,0-.43.25,1.49,1.49,0,0,0,0,.21C19.55,7.88,19.55,8,19.56,8Z" fill="#5abdbd"/><path d="M30.44,42.1c0-.31-.06-.61-.07-.91a.28.28,0,0,0,0-.09c0-.32,0-.62,0-.91a.76.76,0,0,0,0-.15c0-.26,0-.52.06-.76l-.26,0h0c-1-.15-2-.3-3-.46h0l-.69-.11.4.51,0,0c.1.14.22.28.33.41l.21.26c.56.69,1.18,1.4,1.85,2.12l.28.3c.12.14.24.27.37.4l0,0a.28.28,0,0,0,.45-.25l0-.24C30.45,42.19,30.44,42.15,30.44,42.1Z" fill="#f09c22"/><path d="M34.67,14c.36,1.05.66,2,.94,2.9v0c.09.28.17.55.25.81.13-.24.25-.49.37-.74l0,0,.09-.19c.21-.43.41-.87.62-1.33.06-.14.12-.3.19-.44L37.6,14c0-.1.07-.18.11-.28a0,0,0,0,0,0,0,.35.35,0,0,0-.41-.44c-.62.12-1.21.21-1.81.28l-.2,0-.78.06.15.44Z" fill="#d83968"/><path d="M14.84,34.75c0-.08-.05-.17-.08-.26-.13-.4-.26-.8-.37-1.18h0c-.11-.34-.21-.67-.31-1l-.46.93h0l0,0c-.22.46-.44.93-.65,1.42a.54.54,0,0,0,0,.11l-.57,1.34s0,.08-.05.13h0a.41.41,0,0,0,.46.55h0c.36-.07.7-.13,1.05-.18l.09,0,.9-.1.63-.06c-.09-.25-.17-.49-.26-.73Z" fill="#57a38c"/><path d="M43.22,28.73h0l-.53-.37-.18-.12L42,27.9l-.15-.11-.76-.56c-.16-.12-.33-.25-.48-.38l-.67.83-.16.19c-.25.3-.49.59-.74.87l-.13.15c-.23.27-.47.53-.7.79l0,0-.77.84,1-.15h.1l.95-.16h.06L40.63,30l.16,0,1-.22.17,0,1.16-.29h0A.37.37,0,0,0,43.22,28.73Z" fill="#e6542a"/><path d="M24.87,23.12a2.06,2.06,0,0,0-2.08,2.06,2.07,2.07,0,0,0,4.13,0A2.07,2.07,0,0,0,24.87,23.12Z" fill="#f09c22"/></g></g></svg>