<svg xmlns="http://www.w3.org/2000/svg" xmlns:xlink="http://www.w3.org/1999/xlink" viewBox="0 0 100 98.58"><defs><linearGradient id="linear-gradient" y1="49.29" x2="100" y2="49.29" gradientUnits="userSpaceOnUse"><stop offset="0" stop-color="#3c4865"/><stop offset="1" stop-color="#2c2e35"/></linearGradient></defs><g id="Layer_2" data-name="Layer 2"><g id="Sixth_Iteration" data-name="Sixth Iteration"><path d="M100,49.29c0,6.23-8.34,10.73-10.63,16.14C87,71,89.49,80.1,85.2,84.3s-13.31,1.49-19,3.78c-5.43,2.2-10,10.5-16.23,10.5s-10.8-8.3-16.23-10.5c-5.66-2.29-14.7.39-19-3.78S13,71,10.63,65.43C8.34,60,0,55.52,0,49.29S8.34,38.56,10.63,33.16c2.37-5.59-.12-14.68,4.17-18.88s13.31-1.49,19-3.77C39.2,8.31,43.76,0,50,0S60.8,8.31,66.23,10.51c5.66,2.28,14.7-.4,19,3.77S87,27.57,89.37,33.16C91.66,38.56,100,43.06,100,49.29Z" fill="url(#linear-gradient)"/><path d="M21.32,42.37h0a.82.82,0,0,0-.25.59.83.83,0,0,0,.25.59.86.86,0,0,0,1.18,0l3-3a.58.58,0,0,0,.1-.12l0-.07a.59.59,0,0,0,0-.08l.05-.15a.91.91,0,0,0,0-.17.86.86,0,0,0,0-.16.62.62,0,0,1,0-.1s0,0,0-.05l-.05-.09-.21.09.18-.15-.1-.13-3-3a.86.86,0,0,0-1.18,0,.82.82,0,0,0,0,1.18l1.61,1.62a10.19,10.19,0,0,0,.59,20.36h1.41a.83.83,0,1,0,0-1.66H23.52a8.53,8.53,0,0,1-.63-17l-1.57,1.58Zm4.14-2.16Z" fill="#fff"/><path d="M67,48.24A20,20,0,0,0,55.74,46.1V34.83c0-2.24-1.45-4.32-4.09-5.84C46.52,26,38.17,26,33,29c-2.64,1.52-4.1,3.6-4.1,5.84V57.94c.05,2.19,1.51,4.22,4.09,5.71a18.91,18.91,0,0,0,9.29,2.23,23.17,23.17,0,0,0,2.33-.12,8.3,8.3,0,0,0,3.69,3.84,19,19,0,0,0,9.31,2.22A19,19,0,0,0,67,69.6c2.57-1.49,4-3.51,4.09-5.69V54.08C71.06,51.84,69.6,49.76,67,48.24ZM42.33,57c.64,0,1.29,0,1.93-.09v2.76a18.25,18.25,0,0,1-10.39-1.92c-2.16-1.25-3.32-2.86-3.26-4.58v-.3A10.39,10.39,0,0,0,33,54.78,18.92,18.92,0,0,0,42.33,57Zm-11.72.3A10.13,10.13,0,0,0,33,59.21a18.81,18.81,0,0,0,9.29,2.24c.64,0,1.29,0,1.93-.08v2.52c0,.08,0,.15,0,.23a18.22,18.22,0,0,1-10.4-1.92c-2.16-1.25-3.32-2.85-3.26-4.58Zm13.88-3.18-.23,0v1.09a18.25,18.25,0,0,1-10.39-1.92c-2.16-1.25-3.32-2.86-3.26-4.58v-.31A10.16,10.16,0,0,0,33,50.35a19.58,19.58,0,0,0,11.48,2.12,5.11,5.11,0,0,0-.26,1.66ZM33.87,30.43a17.28,17.28,0,0,1,8.47-2,17.22,17.22,0,0,1,8.47,2c2.11,1.21,3.27,2.78,3.27,4.4s-1.16,3.19-3.27,4.4c-4.67,2.69-12.26,2.69-16.94,0-2.1-1.21-3.26-2.77-3.26-4.4S31.77,31.64,33.87,30.43ZM51.65,40.68a10.13,10.13,0,0,0,2.43-1.91v.9c0,1.62-1.16,3.18-3.27,4.4-4.67,2.69-12.27,2.69-16.94,0-2.16-1.25-3.32-2.86-3.26-4.53v-.76A10.36,10.36,0,0,0,33,40.68a19,19,0,0,0,9.3,2.22A19,19,0,0,0,51.65,40.68Zm-21,3.64v-.7A10.33,10.33,0,0,0,33,45.51a19,19,0,0,0,9.3,2.22,19,19,0,0,0,9.31-2.22,10.36,10.36,0,0,0,2.43-1.9v.89a3.77,3.77,0,0,1-.55,1.9,16.59,16.59,0,0,0-5.18,1.84h0a9.62,9.62,0,0,0-2.88,2.44,18.63,18.63,0,0,1-11.6-1.78C31.71,47.66,30.55,46.05,30.61,44.32ZM45.92,62.87a10.33,10.33,0,0,0,2.43,1.89A18.88,18.88,0,0,0,57.66,67,18.87,18.87,0,0,0,67,64.76a10.1,10.1,0,0,0,2.43-1.9v.89c0,1.63-1.16,3.19-3.26,4.41-4.67,2.69-12.27,2.69-16.94,0-2.17-1.25-3.33-2.86-3.27-4.58Zm20.21.45C61.46,66,53.86,66,49.19,63.32c-2.17-1.25-3.33-2.86-3.27-4.58V58a10.36,10.36,0,0,0,2.43,1.9,19,19,0,0,0,9.31,2.22A19,19,0,0,0,67,59.93,10.36,10.36,0,0,0,69.39,58v.89C69.39,60.54,68.23,62.11,66.13,63.32Zm0-4.84c-4.67,2.7-12.27,2.7-16.94,0-2.11-1.21-3.27-2.77-3.27-4.4s1.16-3.19,3.27-4.4a15.4,15.4,0,0,1,5-1.72h.08a20.29,20.29,0,0,1,3.41-.28,17.28,17.28,0,0,1,8.47,2c2.1,1.21,3.26,2.78,3.26,4.4S68.23,57.27,66.13,58.48Z" fill="#fff"/><path d="M86.67,49.29A10.2,10.2,0,0,0,76.48,39.1H75.07a.83.83,0,0,0-.83.83.84.84,0,0,0,.83.84h1.41a8.52,8.52,0,0,1,.63,17l1.57-1.57A.83.83,0,1,0,77.5,55l-3,3a.71.71,0,0,0-.18.29.8.8,0,0,0-.06.3,1,1,0,0,0,.06.32.8.8,0,0,0,.18.27l3,3a.83.83,0,0,0,.59.25.85.85,0,0,0,.84-.84.83.83,0,0,0-.25-.59l-1.61-1.61A10.22,10.22,0,0,0,86.67,49.29Z" fill="#fff"/></g></g></svg>