<svg xmlns="http://www.w3.org/2000/svg" xmlns:xlink="http://www.w3.org/1999/xlink" viewBox="0 0 100 98.58"><defs><linearGradient id="linear-gradient" y1="49.29" x2="100" y2="49.29" gradientUnits="userSpaceOnUse"><stop offset="0" stop-color="#3c4865"/><stop offset="1" stop-color="#2c2e35"/></linearGradient></defs><g id="Layer_2" data-name="Layer 2"><g id="Sixth_Iteration" data-name="Sixth Iteration"><path d="M100,49.29c0,6.23-8.34,10.73-10.63,16.14C87,71,89.49,80.1,85.2,84.3s-13.31,1.49-19,3.78c-5.43,2.2-10,10.5-16.23,10.5s-10.8-8.3-16.23-10.5c-5.66-2.29-14.7.39-19-3.78S13,71,10.63,65.43C8.34,60,0,55.52,0,49.29S8.34,38.56,10.63,33.16c2.37-5.59-.12-14.68,4.17-18.88s13.31-1.49,19-3.77C39.2,8.31,43.76,0,50,0S60.8,8.31,66.23,10.51c5.66,2.28,14.7-.4,19,3.77S87,27.57,89.37,33.16C91.66,38.56,100,43.06,100,49.29Z" fill="url(#linear-gradient)"/><path d="M57.11,55a.85.85,0,0,0-.84-.84H35a.84.84,0,0,0,0,1.68H56.27A.85.85,0,0,0,57.11,55Z" fill="#fff"/><path d="M52.55,69.34H29.79V34.52h7.06a.83.83,0,0,0,.84-.84V26.62H61.46V57.27a.85.85,0,0,0,.85.84.84.84,0,0,0,.83-.84V25.78a.84.84,0,0,0-.84-.84H36.85l-.16,0a.76.76,0,0,0-.25.09,1.41,1.41,0,0,0-.18.14l-7.9,7.9a1.26,1.26,0,0,0-.16.22.65.65,0,0,0-.07.21.88.88,0,0,0,0,.16v36.5A.85.85,0,0,0,29,71h23.6a.84.84,0,0,0,0-1.68ZM31,32.84l5-5v5Z" fill="#fff"/><path d="M56.27,38.31h-15a.84.84,0,1,0,0,1.68h15a.84.84,0,0,0,0-1.68Z" fill="#fff"/><path d="M65.54,59.06H62.31a8.23,8.23,0,0,0,0,16.46h3.23a8.23,8.23,0,0,0,0-16.46Zm-3.23,1.69a6.54,6.54,0,1,1-6.54,6.54A6.55,6.55,0,0,1,62.31,60.75Zm5.48,12.68a8.22,8.22,0,0,0,0-12.27,6.54,6.54,0,0,1,0,12.27Z" fill="#fff"/><path d="M35,62a.84.84,0,0,0,0,1.68H48.55a.84.84,0,0,0,0-1.68Z" fill="#fff"/><path d="M56.27,46.22H35a.84.84,0,0,0,0,1.68H56.27a.84.84,0,1,0,0-1.68Z" fill="#fff"/></g></g></svg>