<svg xmlns="http://www.w3.org/2000/svg" xmlns:xlink="http://www.w3.org/1999/xlink" viewBox="0 0 106.63 105.12"><defs><linearGradient id="linear-gradient" x1="17.48" y1="12.45" x2="91.72" y2="95.55" gradientUnits="userSpaceOnUse"><stop offset="0" stop-color="#3c4865"/><stop offset="1" stop-color="#2c2e35"/></linearGradient></defs><g id="Layer_2" data-name="Layer 2"><g id="Sixth_Iteration" data-name="Sixth Iteration"><path d="M106.63,52.56c0,6.64-8.89,11.44-11.34,17.2-2.53,6,.13,15.65-4.45,20.13s-14.19,1.58-20.22,4C64.83,96.26,60,105.12,53.31,105.12S41.79,96.26,36,93.91c-6-2.44-15.67.42-20.22-4s-1.92-14.17-4.45-20.13C8.89,64,0,59.2,0,52.56S8.89,41.12,11.33,35.35c2.53-6-.13-15.64,4.45-20.12S30,13.64,36,11.2C41.79,8.86,46.66,0,53.31,0S64.83,8.86,70.62,11.2c6,2.44,15.67-.42,20.23,4s1.91,14.17,4.44,20.12C97.74,41.12,106.63,45.92,106.63,52.56Z" fill="url(#linear-gradient)"/><path d="M77.77,36.91H65.19a5.71,5.71,0,0,0-3.4,1.24l-5.32,4.14-5.61,1.79a3.15,3.15,0,0,0,1.54,6.09l3.3-.63a26.61,26.61,0,0,0,6.17-2l2.44-1.12V75.85A4.16,4.16,0,0,0,68,80l.39,0A4.08,4.08,0,0,0,71.08,79a4.35,4.35,0,0,0,.41-.44,3.51,3.51,0,0,0,.42.44A4,4,0,0,0,75,80a4.17,4.17,0,0,0,3.65-4.17V59a3.14,3.14,0,0,0,1.26.39,3.4,3.4,0,0,0,2.62-.86A3.46,3.46,0,0,0,83.67,56V42.81A5.91,5.91,0,0,0,77.77,36.91Zm0,7.21a.91.91,0,0,0-.91.91V75.85a2.32,2.32,0,0,1-2,2.36A2.23,2.23,0,0,1,72.4,76V60.81a.91.91,0,1,0-1.81,0V76a2.24,2.24,0,0,1-.73,1.65,2.27,2.27,0,0,1-1.73.57,2.32,2.32,0,0,1-2-2.36V45a.91.91,0,0,0-.9-.91.85.85,0,0,0-.38.09l-3.72,1.71a25.28,25.28,0,0,1-5.76,1.84l-3.3.63a1.33,1.33,0,0,1-1.45-1.89,1.29,1.29,0,0,1,.79-.69L57.18,44a.85.85,0,0,0,.28-.15l5.45-4.24a3.79,3.79,0,0,1,2.31-.85H77.77a4.09,4.09,0,0,1,4.09,4.08V56a1.6,1.6,0,0,1-1.75,1.58,1.67,1.67,0,0,1-1.43-1.69V45A.91.91,0,0,0,77.77,44.12Z" fill="#fff"/><path d="M71.49,35.33a5.13,5.13,0,1,0-5.12-5.13A5.13,5.13,0,0,0,71.49,35.33Zm0-8.43a3.31,3.31,0,1,1-3.31,3.3A3.31,3.31,0,0,1,71.49,26.9Z" fill="#fff"/><path d="M37.08,61.53h0A2.2,2.2,0,0,1,39.3,63a.91.91,0,0,0,1.12.61.83.83,0,0,0,.54-.43.87.87,0,0,0,.08-.69,4,4,0,0,0-3-2.65v-1.3a.91.91,0,1,0-1.81,0v1.27a4,4,0,0,0-2.22.86,2.89,2.89,0,0,0-1,2.21,3,3,0,0,0,2.4,3.06l2.68.79a1.73,1.73,0,0,1,1.16,1.42,1.28,1.28,0,0,1-.71,1.37l-.06,0a3.06,3.06,0,0,1-3.92-.86.91.91,0,0,0-1.27-.17.92.92,0,0,0-.17,1.27,4.66,4.66,0,0,0,3.08,1.87V73A.91.91,0,1,0,38,73V71.58a5,5,0,0,0,1.27-.43A3.1,3.1,0,0,0,41,68a3.56,3.56,0,0,0-2.45-3l-2.68-.79c-1-.31-1.11-.83-1.1-1.31a1.05,1.05,0,0,1,.36-.85A2.81,2.81,0,0,1,37.08,61.53Z" fill="#fff"/><path d="M43.31,52.43a2.71,2.71,0,0,0,1-2.07,2.75,2.75,0,0,0-1.72-2.53c.53-.88,1.4-2.26,2.6-4,.89-1.31.49-2.16.16-2.55-1.67-2-8.3-.16-9.52.37-.86.38-1.42.1-2.41-.46a4.56,4.56,0,0,0-3.16-.83,1.46,1.46,0,0,0-1.17.92c-.41,1.12.61,3.27,3,6.4a2.72,2.72,0,0,0-1.39,4.77C25.3,56.79,22,65.57,22,71.27,22,80,29.26,80,37,80s15,0,15-8.77C52.05,65.57,48.71,56.79,43.31,52.43ZM37,78.22c-8.45,0-13.23-.32-13.23-7,0-5.82,3.88-14.82,9.08-18.17h8.3c5.2,3.35,9.08,12.35,9.08,18.17C50.23,77.9,45.45,78.22,37,78.22Zm6.65-35.44c-1.61,2.36-2.61,4-3.09,4.84H34.38a22.31,22.31,0,0,1-3.59-5.51,3.47,3.47,0,0,1,1.66.62l0,0a4.11,4.11,0,0,0,4,.55c2.21-1,6.77-1.44,7.36-.94A1.15,1.15,0,0,1,43.65,42.78Zm-2.12,8.51H32.48a.93.93,0,1,1,0-1.85h9.05a.93.93,0,0,1,0,1.85Z" fill="#fff"/></g></g></svg>