<svg xmlns="http://www.w3.org/2000/svg" viewBox="0 0 84 84"><g id="Layer_2" data-name="Layer 2"><g id="Layer_1-2" data-name="Layer 1"><rect width="84" height="84" fill="none"/><path d="M39.47,58.62,38.4,54.85a12.12,12.12,0,0,0-6.57-7.7l-2.64-1.23A5.91,5.91,0,0,1,26,42.17L24.7,37.65l.1-.76A3.88,3.88,0,0,0,23,33.07l-.06,0" fill="none" stroke="#f09c22" stroke-linejoin="round" stroke-width="2.19"/><path d="M26.44,51.1l-.56.07A9.1,9.1,0,0,1,18,47.64c-3.87-5-6.82-1.87-6.82-1.87a64.38,64.38,0,0,1,5.37,7.62,11.48,11.48,0,0,0,7.09,5.5l.57.13a6.7,6.7,0,0,1,4.55,3.44" fill="none" stroke="#f09c22" stroke-linejoin="round" stroke-width="2.19"/><path d="M14.06,44.86l-1.32-6L16.61,27s2.22.55,1.65,3.94L16.5,38.62l1.2,4.89" fill="none" stroke="#f09c22" stroke-linejoin="round" stroke-width="2.19"/><path d="M18,28.2l1-3.21s2.88,1.06,1.91,4.89l-1.61,8.39,1.28,4.54" fill="none" stroke="#f09c22" stroke-linejoin="round" stroke-width="2.19"/><path d="M21.15,28.19l.15.11A4.36,4.36,0,0,1,23,32.62l-.93,5,1.32,4.63" fill="none" stroke="#f09c22" stroke-linejoin="round" stroke-width="2.19"/><polyline points="38.15 66.52 29.1 69.31 26.66 63.23 39.47 58.62 39.47 61.7" fill="none" stroke="#f09c22" stroke-linejoin="round" stroke-width="2.19"/><line x1="27.71" y1="65.86" x2="39.47" y2="61.7" fill="none" stroke="#f09c22" stroke-linejoin="round" stroke-width="2.19"/><path d="M44.53,58.62l1.07-3.77a12.14,12.14,0,0,1,6.56-7.7l2.65-1.23A5.9,5.9,0,0,0,58,42.17l1.28-4.52-.1-.76A3.9,3.9,0,0,1,61,33.07l.07,0" fill="none" stroke="#f09c22" stroke-linejoin="round" stroke-width="2.19"/><path d="M57.56,51.1l.56.07A9.1,9.1,0,0,0,66,47.64c3.87-5,6.82-1.87,6.82-1.87a63.11,63.11,0,0,0-5.37,7.62,11.51,11.51,0,0,1-7.09,5.5L59.8,59a6.68,6.68,0,0,0-4.55,3.44" fill="none" stroke="#f09c22" stroke-linejoin="round" stroke-width="2.19"/><path d="M69.94,44.86l1.32-6L67.38,27s-2.22.55-1.64,3.94l1.75,7.73L66.3,43.51" fill="none" stroke="#f09c22" stroke-linejoin="round" stroke-width="2.19"/><path d="M66,28.2,65,25S62.07,26.05,63,29.88l1.61,8.39-1.28,4.54" fill="none" stroke="#f09c22" stroke-linejoin="round" stroke-width="2.19"/><path d="M62.85,28.19l-.15.11A4.36,4.36,0,0,0,61,32.62l.93,5-1.33,4.63" fill="none" stroke="#f09c22" stroke-linejoin="round" stroke-width="2.19"/><polyline points="45.85 66.52 54.9 69.31 57.34 63.23 44.53 58.62 44.53 61.7" fill="none" stroke="#f09c22" stroke-linejoin="round" stroke-width="2.19"/><line x1="56.28" y1="65.86" x2="44.53" y2="61.7" fill="none" stroke="#f09c22" stroke-linejoin="round" stroke-width="2.19"/><path d="M55.75,28.19a13.5,13.5,0,1,0-13.5,13.5A13.5,13.5,0,0,0,55.75,28.19Z" fill="none" stroke="#f09c22" stroke-linejoin="round" stroke-width="2.19"/><path d="M51.44,28.19a9.19,9.19,0,1,0-9.19,9.19A9.2,9.2,0,0,0,51.44,28.19Z" fill="none" stroke="#f09c22" stroke-linejoin="round" stroke-width="1.97"/></g></g></svg>