<svg xmlns="http://www.w3.org/2000/svg" viewBox="0 0 84 84"><g id="Layer_2" data-name="Layer 2"><g id="Layer_1-2" data-name="Layer 1"><rect width="84" height="84" fill="none"/><path d="M59.66,14.7H24.34a6.43,6.43,0,0,0-6.43,6.43V62.87a6.43,6.43,0,0,0,6.43,6.43H45.57a3.23,3.23,0,0,0,2.17-.85L65,52.59a3.2,3.2,0,0,0,1-2.37V21.13A6.43,6.43,0,0,0,59.66,14.7Z" fill="none" stroke="#f09c22" stroke-linejoin="round" stroke-width="3.21"/><path d="M65.28,51.63h-12a6.42,6.42,0,0,0-6.42,6.43V69.3Z" fill="#f09c22"/><line x1="25.94" y1="25.94" x2="51.63" y2="25.94" fill="none" stroke="#f09c22" stroke-linejoin="round" stroke-width="3.21"/><line x1="25.94" y1="59.66" x2="38.79" y2="59.66" fill="none" stroke="#f09c22" stroke-linejoin="round" stroke-width="3.21"/><line x1="25.94" y1="48.42" x2="45.21" y2="48.42" fill="none" stroke="#f09c22" stroke-linejoin="round" stroke-width="3.21"/><line x1="25.94" y1="37.18" x2="58.06" y2="37.18" fill="none" stroke="#f09c22" stroke-linejoin="round" stroke-width="3.21"/></g></g></svg>