<svg xmlns="http://www.w3.org/2000/svg" viewBox="0 0 50 50"><g id="Layer_2" data-name="Layer 2"><g id="Sixth_Iteration" data-name="Sixth Iteration"><rect width="50" height="50" fill="none"/><path d="M40.27,43H31.11a1.72,1.72,0,0,1-1.72-1.72V32.12a4.39,4.39,0,0,0-8.78,0v9.16A1.72,1.72,0,0,1,18.89,43H9.73A1.72,1.72,0,0,1,8,41.28V22.53a6.21,6.21,0,0,1,2.3-4.83L22.31,8a4.27,4.27,0,0,1,5.38,0l12,9.75A6.21,6.21,0,0,1,42,22.53V41.28A1.72,1.72,0,0,1,40.27,43ZM25,26.33a5.79,5.79,0,0,1,5.79,5.79v9.16a.31.31,0,0,0,.32.31h9.16a.31.31,0,0,0,.31-.31V22.53a4.79,4.79,0,0,0-1.77-3.74L26.8,9a2.86,2.86,0,0,0-3.6,0h0l-12,9.75a4.79,4.79,0,0,0-1.77,3.74V41.28a.31.31,0,0,0,.31.31h9.16a.31.31,0,0,0,.32-.31V32.12A5.79,5.79,0,0,1,25,26.33Z" fill="#4d4d4d"/></g></g></svg>