<svg xmlns="http://www.w3.org/2000/svg" width="80" height="82" viewBox="0 0 80 82">
  <g id="logo-background" transform="translate(-154.406 -565.609)">
    <rect id="Rectangle_1" data-name="Rectangle 1" width="80" height="82" transform="translate(154.406 565.609)" fill="#fff"/>
    <g id="location" transform="translate(172.453 581.773)">
      <path id="Tracé_10" data-name="Tracé 10" d="M26.078,59.922,10.392,39.429q-.327-.461-.646-.928a24.049,24.049,0,0,1-4.12-13.594c0-12.513,9.157-22.657,20.453-22.657S46.532,12.394,46.532,24.907A24.039,24.039,0,0,1,42.413,38.5l0,.005s-.557.811-.641.921Zm-13.366-23.9s.435.633.534.771L26.078,53.554,38.927,36.767c.081-.114.517-.752.519-.754a19.66,19.66,0,0,0,3.367-11.106c0-10.238-7.492-18.537-16.735-18.537S9.344,14.669,9.344,24.907a19.666,19.666,0,0,0,3.372,11.111Z" transform="translate(-5.625 -2.25)" fill="#00c569"/>
    </g>
    <g id="fingerprint-recognition" transform="translate(185.534 592.759)">
      <path id="Tracé_1" data-name="Tracé 1" d="M7.451,4.165a.462.462,0,0,1-.409-.38.653.653,0,0,1,.148-.617,7.5,7.5,0,0,1,5.364-2.046A7.9,7.9,0,0,1,17.94,3.016a.66.66,0,0,1,.1.774.384.384,0,0,1-.612.123,7.179,7.179,0,0,0-4.876-1.685A6.781,6.781,0,0,0,7.734,4.049a.363.363,0,0,1-.284.116Z" transform="translate(-5.168 -1.115)" fill="#00c569"/>
      <path id="Tracé_2" data-name="Tracé 2" d="M17.665,10.756a.424.424,0,0,1-.357-.238A7.1,7.1,0,0,0,10.731,6.4a7.5,7.5,0,0,0-6.594,4.121.379.379,0,0,1-.607.123.587.587,0,0,1-.181-.377.66.66,0,0,1,.1-.425c1.7-2.936,4.422-4.632,7.286-4.547,3.181,0,5.562,1.5,7.28,4.584a.659.659,0,0,1-.108.774.388.388,0,0,1-.238.1Z" transform="translate(-3.345 -2.608)" fill="#00c569"/>
      <path id="Tracé_3" data-name="Tracé 3" d="M9.277,25.784a.458.458,0,0,1-.408-.354.681.681,0,0,1,0-.43.487.487,0,0,1,.247-.293,7.2,7.2,0,0,0,3.969-6.658,2.365,2.365,0,0,0-.461-1.581,1.413,1.413,0,0,0-1.24-.587c-1.055,0-1.565.723-1.7,2.422-.131,1.651-1.264,2.875-2.563,2.769a2.206,2.206,0,0,1-1.8-.971,3.632,3.632,0,0,1-.651-2.347c.065-4.653,3.063-8.366,6.713-8.314,3.742,0,6.782,3.853,6.8,8.625a16.718,16.718,0,0,1-.788,4.7.414.414,0,0,1-.567.3.507.507,0,0,1-.235-.3.69.69,0,0,1,0-.423,15.453,15.453,0,0,0,.72-4.273c-.016-4.164-2.671-7.527-5.936-7.519A5.172,5.172,0,0,0,7.267,12.6,8.428,8.428,0,0,0,5.5,17.774a2.374,2.374,0,0,0,.4,1.559,1.438,1.438,0,0,0,1.181.653,1.339,1.339,0,0,0,1.143-.445,2.19,2.19,0,0,0,.557-1.348c.2-2.248,1.071-3.39,2.585-3.39a2.19,2.19,0,0,1,1.859.918,3.636,3.636,0,0,1,.7,2.378A8.273,8.273,0,0,1,9.4,25.784.41.41,0,0,1,9.277,25.784Z" transform="translate(-4.001 -4.089)" fill="#00c569"/>
      <path id="Tracé_4" data-name="Tracé 4" d="M15.55,26.77a.409.409,0,0,1-.295-.145.661.661,0,0,1,0-.781,10.571,10.571,0,0,0,2.007-6.275c0-1.128-.272-4.807-3.8-4.807a3.45,3.45,0,0,0-2.8,1.352,5.153,5.153,0,0,0-1.037,3.224.506.506,0,0,1-.436.549.388.388,0,0,1-.308-.158.633.633,0,0,1-.128-.391,6.479,6.479,0,0,1,1.258-4,4.228,4.228,0,0,1,3.4-1.677c3.447,0,4.672,3.181,4.672,5.914a11.814,11.814,0,0,1-2.211,7,.4.4,0,0,1-.323.2Z" transform="translate(-6.027 -5.596)" fill="#00c569"/>
      <path id="Tracé_5" data-name="Tracé 5" d="M8.475,27.921a6.309,6.309,0,0,1-.884-.065.452.452,0,0,1-.364-.323.682.682,0,0,1,.049-.562.4.4,0,0,1,.411-.213A3.581,3.581,0,0,0,11,25.8a5.207,5.207,0,0,0,1.2-3.275.609.609,0,0,1,.146-.383.369.369,0,0,1,.318-.13.533.533,0,0,1,.408.585,6.427,6.427,0,0,1-1.519,4.063,4.022,4.022,0,0,1-3.079,1.258Z" transform="translate(-5.251 -8.583)" fill="#00c569"/>
    </g>
  </g>
</svg>
