<svg xmlns="http://www.w3.org/2000/svg" viewBox="0 0 84 84"><g id="Layer_2" data-name="Layer 2"><g id="Layer_1-2" data-name="Layer 1"><rect width="84" height="84" fill="none"/><rect x="11.17" y="23.86" width="56.69" height="41.25" rx="4.97" fill="none" stroke="#f09c22" stroke-linejoin="round" stroke-width="2.61"/><path d="M16.14,23.86h0a5,5,0,0,1,5-5H67.86a5,5,0,0,1,5,5V55.17a5,5,0,0,1-5,5h0" fill="none" stroke="#f09c22" stroke-linejoin="round" stroke-width="2.61"/><line x1="17.17" y1="51.72" x2="49.95" y2="51.72" fill="none" stroke="#f09c22" stroke-linejoin="round" stroke-width="2.61"/><line x1="61.82" y1="31.35" x2="48.53" y2="31.35" fill="none" stroke="#f09c22" stroke-linejoin="round" stroke-width="2.61"/><line x1="30.45" y1="31.2" x2="17.16" y2="31.2" fill="none" stroke="#f09c22" stroke-linejoin="round" stroke-width="2.61"/><line x1="30.45" y1="35.75" x2="17.16" y2="35.75" fill="none" stroke="#f09c22" stroke-linejoin="round" stroke-width="2.61"/><line x1="41.08" y1="55.92" x2="49.95" y2="55.92" fill="none" stroke="#f09c22" stroke-linejoin="round" stroke-width="2.61"/><circle cx="56" cy="43.12" r="2.77" fill="#f09c22"/><circle cx="58.8" cy="43.12" r="2.77" fill="#f09c22"/><ellipse cx="57.4" cy="43.12" rx="1.37" ry="2.39" fill="#fff"/></g></g></svg>