<svg xmlns="http://www.w3.org/2000/svg" xmlns:xlink="http://www.w3.org/1999/xlink" viewBox="0 0 100 98.58"><defs><linearGradient id="linear-gradient" x1="16.39" y1="11.67" x2="86.02" y2="89.61" gradientUnits="userSpaceOnUse"><stop offset="0" stop-color="#3c4865"/><stop offset="1" stop-color="#2c2e35"/></linearGradient></defs><g id="Layer_2" data-name="Layer 2"><g id="Sixth_Iteration" data-name="Sixth Iteration"><path d="M100,49.29c0,6.23-8.34,10.73-10.63,16.14C87,71,89.49,80.1,85.2,84.3s-13.31,1.49-19,3.78c-5.43,2.2-10,10.5-16.23,10.5s-10.8-8.3-16.23-10.5c-5.66-2.29-14.7.39-19-3.78S13,71,10.63,65.43C8.34,60,0,55.52,0,49.29S8.34,38.56,10.63,33.16c2.37-5.59-.12-14.68,4.17-18.88s13.31-1.49,19-3.77C39.2,8.31,43.76,0,50,0S60.8,8.31,66.23,10.51c5.66,2.28,14.7-.4,19,3.77S87,27.57,89.37,33.16C91.66,38.56,100,43.06,100,49.29Z" fill="url(#linear-gradient)"/><path d="M40.38,34.61a.92.92,0,1,1,1.78.43c-1.38,5.69,0,9.09,4.32,10.4a.92.92,0,0,1,.65.92v.19c-.25,4.88-.41,8.11.41,9a1.18,1.18,0,0,0,.92.32.67.67,0,0,0,.55-.2c1.58-1.4,2.08-8.23,2.43-14.52a.94.94,0,0,1,1-.86.91.91,0,0,1,.86,1c-.5,9.13-1.11,14.07-3,15.79a2.56,2.56,0,0,1-1.7.66h-.16a3,3,0,0,1-2.18-.92C44.89,55.37,45,52.54,45.27,47,41.83,45.67,38.49,42.46,40.38,34.61Zm7.26-7.39C53,32.26,58.11,37,58,46a.91.91,0,0,0,.9.92h0a.9.9,0,0,0,.91-.9C60,36.25,54.33,31,48.89,25.89l-2.26-2.14a.91.91,0,0,0-1.29,0,.93.93,0,0,0,0,1.3ZM32.13,36.84c.51.37,1,.77,1.46,1.15l.46.37a21.6,21.6,0,0,0,1.26,8,.9.9,0,0,0,.86.61,1,1,0,0,0,.3-.05A.91.91,0,0,0,37,45.74,19.71,19.71,0,0,1,35.9,38a.94.94,0,0,0-.35-.77l-.81-.65c-.49-.4-1-.81-1.52-1.19a.91.91,0,1,0-1.09,1.46ZM54.38,49.22a.91.91,0,0,0,.91.91H65.66A1.83,1.83,0,0,1,67.49,52V64.8a.91.91,0,0,0,1.82,0V52a3.65,3.65,0,0,0-3.65-3.65H55.29A.91.91,0,0,0,54.38,49.22ZM31.55,65.71a.91.91,0,0,0,.91-.91V52a1.85,1.85,0,0,1,1.88-1.83h8.17a.91.91,0,0,0,0-1.82H34.34A3.68,3.68,0,0,0,30.63,52V64.8A.92.92,0,0,0,31.55,65.71Zm41.2,1.94H27.25a.91.91,0,0,0,0,1.82h45.5a.91.91,0,0,0,0-1.82Zm-38.19-5a.91.91,0,0,0,.91.91H64.53a.91.91,0,0,0,0-1.82H35.47A.9.9,0,0,0,34.56,62.65ZM64.21,54.7a.92.92,0,0,0,0-1.83H59.59a.92.92,0,0,0,0,1.83ZM54.06,57.49a.91.91,0,0,0,.91.91h9.24a.91.91,0,0,0,0-1.82H55A.91.91,0,0,0,54.06,57.49Z" fill="#fff"/></g></g></svg>