<svg xmlns="http://www.w3.org/2000/svg" viewBox="0 0 50 50"><g id="Layer_2" data-name="Layer 2"><g id="Sixth_Iteration" data-name="Sixth Iteration"><rect width="50" height="50" fill="none"/><path d="M31.84,5.5H18.16a5.26,5.26,0,0,0-5.34,5.16V39.34a5.26,5.26,0,0,0,5.34,5.16H31.84a5.26,5.26,0,0,0,5.34-5.16V10.66A5.26,5.26,0,0,0,31.84,5.5ZM25,41.93a2,2,0,1,1,2-2A2,2,0,0,1,25,41.93Zm2.31-31.52H22.69c-.66,0-1.19-.39-1.19-.87s.53-.86,1.19-.86h4.62c.66,0,1.19.38,1.19.86S28,10.41,27.31,10.41Z" fill="#f09c22"/></g></g></svg>