<svg xmlns="http://www.w3.org/2000/svg" viewBox="0 0 50 50"><g id="Layer_2" data-name="Layer 2"><g id="Sixth_Iteration" data-name="Sixth Iteration"><rect width="50" height="50" fill="none"/><path d="M31.84,44.5H18.16a5.26,5.26,0,0,1-5.34-5.16V10.66A5.26,5.26,0,0,1,18.16,5.5H31.84a5.26,5.26,0,0,1,5.34,5.16V39.34A5.26,5.26,0,0,1,31.84,44.5ZM18.16,7a3.73,3.73,0,0,0-3.79,3.66V39.34A3.73,3.73,0,0,0,18.16,43H31.84a3.73,3.73,0,0,0,3.79-3.66V10.66A3.73,3.73,0,0,0,31.84,7Z" fill="#4d4d4d"/><path d="M27.1,10.41H22.9c-.6,0-1.08-.35-1.08-.79h0c0-.43.48-.79,1.08-.79h4.2c.6,0,1.08.36,1.08.79h0C28.18,10.06,27.7,10.41,27.1,10.41Z" fill="#4d4d4d"/><path d="M25,38A2,2,0,1,0,27,40,2,2,0,0,0,25,38Z" fill="#4d4d4d"/></g></g></svg>