<svg xmlns="http://www.w3.org/2000/svg" viewBox="0 0 84 84"><g id="Layer_2" data-name="Layer 2"><g id="Layer_1-2" data-name="Layer 1"><rect width="84" height="84" fill="none"/><path d="M42,51.63c-4.53,0-9.79-5-11.9-12.05-1.7,0-3.16-2-3.35-4.58s.91-4.56,2.47-4.95C29.64,20.42,32.3,14.7,42,14.7s12.36,5.72,12.78,15.35c1.56.39,2.63,2.49,2.47,4.95s-1.65,4.54-3.35,4.58C51.79,46.61,46.53,51.63,42,51.63Z" fill="none" stroke="#f09c22" stroke-linejoin="round" stroke-width="2.9"/><path d="M51.63,46C62,48.42,69.3,53.69,69.3,64.48,62.07,67.78,51.44,69.3,42,69.3s-20.07-1.52-27.3-4.82C14.7,53.69,22,48.42,32.37,46" fill="none" stroke="#f09c22" stroke-linejoin="round" stroke-width="2.9"/></g></g></svg>