<svg xmlns="http://www.w3.org/2000/svg" xmlns:xlink="http://www.w3.org/1999/xlink" viewBox="0 0 100 98.58"><defs><linearGradient id="linear-gradient" y1="49.29" x2="100" y2="49.29" gradientUnits="userSpaceOnUse"><stop offset="0" stop-color="#3c4865"/><stop offset="1" stop-color="#2c2e35"/></linearGradient></defs><g id="Layer_2" data-name="Layer 2"><g id="Sixth_Iteration" data-name="Sixth Iteration"><path d="M100,49.29c0,6.23-8.34,10.73-10.63,16.14C87,71,89.49,80.1,85.2,84.3s-13.31,1.49-19,3.78c-5.43,2.2-10,10.5-16.23,10.5s-10.8-8.3-16.23-10.5c-5.66-2.29-14.7.39-19-3.78S13,71,10.63,65.43C8.34,60,0,55.52,0,49.29S8.34,38.56,10.63,33.16c2.37-5.59-.12-14.68,4.17-18.88s13.31-1.49,19-3.77C39.2,8.31,43.76,0,50,0S60.8,8.31,66.23,10.51c5.66,2.28,14.7-.4,19,3.77S87,27.57,89.37,33.16C91.66,38.56,100,43.06,100,49.29Z" fill="url(#linear-gradient)"/><path d="M71.37,59.07C68.81,63.66,55.46,71,52,71h0c-2.16-.08-6.75-1.81-12.09-3.91-1.75-.68-3.26-1.27-3.87-1.44a.92.92,0,0,1,.5-1.78c.7.2,2.17.78,4,1.51C44.29,66.84,50,69.08,52,69.15h0c2.84,0,15.56-7.08,17.74-11,.47-.84.41-1.14.41-1.14-1-.8-8.39,2.09-10.56,3.35a1.94,1.94,0,0,1-.06.6c-.38,1.56-2.26,2.55-4.57,2.55a9.13,9.13,0,0,1-1.62-.15L52,63.1a64.71,64.71,0,0,1-7.09-1.7.92.92,0,1,1,.56-1.76,62,62,0,0,0,6.89,1.65l1.37.28c2.37.45,3.89-.43,4-1,.11-.43-.57-1.32-2.87-2a24.72,24.72,0,0,1-8-4.24,12,12,0,0,0-3.18-1.9c-2.67-.82-6.76.34-9.42,1.78a.92.92,0,0,1-.88-1.62c3.1-1.67,7.65-2.91,10.86-1.92A13.51,13.51,0,0,1,48,52.81a23,23,0,0,0,7.46,3.95,7.18,7.18,0,0,1,3.49,2c2.61-1.36,10.29-4.92,12.47-3.06C72,56.16,72.44,57.15,71.37,59.07ZM44.7,40.18A4.7,4.7,0,0,1,47.39,34,4.63,4.63,0,0,1,51,34a4.76,4.76,0,0,1-1.79,9.18A4.75,4.75,0,0,1,44.7,40.18Zm1.71-.68a3,3,0,0,0,3.81,1.66,2.94,2.94,0,0,0,0-5.45,2.94,2.94,0,0,0-1.08-.22,2.89,2.89,0,0,0-1.08.22h0a2.86,2.86,0,0,0-1.64,3.78Zm7,9a4.78,4.78,0,0,1,8.3-3v0a4.76,4.76,0,0,1-7.07,6.38A4.62,4.62,0,0,1,53.45,48.52Zm1.84.08a2.86,2.86,0,0,0,.76,2.07,2.92,2.92,0,1,0,4.34-3.91,3,3,0,0,0-2.19-1,2.78,2.78,0,0,0-1.92.76A2.89,2.89,0,0,0,55.29,48.6Zm2.26-13.49a4.65,4.65,0,0,1-.81-3.55,4.78,4.78,0,0,1,8.61-2v0a4.77,4.77,0,0,1-1.16,6.65,4.71,4.71,0,0,1-2.74.88,4.76,4.76,0,0,1-.83-.08A4.69,4.69,0,0,1,57.55,35.11Zm1.51-1.06a2.86,2.86,0,0,0,1.88,1.21,2.91,2.91,0,0,0,2.2-.5,2.92,2.92,0,0,0-1.68-5.32,3,3,0,0,0-1.71.54,2.93,2.93,0,0,0-1.19,1.9A2.82,2.82,0,0,0,59.06,34.05ZM34.42,67a.94.94,0,0,1-.13.69,1,1,0,0,1-.59.4l-5.15,1.08a.63.63,0,0,1-.19,0,.92.92,0,0,1-.9-.74l-3.2-15.13a.91.91,0,0,1,.13-.7.92.92,0,0,1,.58-.4l5.15-1.08a.92.92,0,0,1,1.1.71Zm-2-.53L29.6,53.09l-3.35.71,2.82,13.33Z" fill="#fff"/></g></g></svg>