<svg xmlns="http://www.w3.org/2000/svg" viewBox="0 0 84 84"><g id="Layer_2" data-name="Layer 2"><g id="Layer_1-2" data-name="Layer 1"><rect width="84" height="84" fill="none"/><polygon points="42 15.34 13.5 31.14 70.5 31.14 42 15.34" fill="none" stroke="#f09c22" stroke-linejoin="round" stroke-width="2.25"/><polyline points="66.39 31.14 66.39 34.7 17.61 34.7 17.61 31.14" fill="none" stroke="#f09c22" stroke-linejoin="round" stroke-width="2.25"/><polyline points="66.39 64.79 66.39 60.26 17.61 60.26 17.61 64.79" fill="none" stroke="#f09c22" stroke-linejoin="round" stroke-width="2.25"/><path d="M26.64,37.74a1.55,1.55,0,1,1-3.1,0H20.71a1.55,1.55,0,1,1-3.1,0v-3h9Z" fill="none" stroke="#f09c22" stroke-linejoin="round" stroke-width="2.25"/><path d="M26.64,57.22a1.55,1.55,0,0,0-3.1,0H20.71a1.55,1.55,0,0,0-3.1,0v3h9Z" fill="none" stroke="#f09c22" stroke-linejoin="round" stroke-width="2.25"/><path d="M46.52,57.22a1.56,1.56,0,0,0-3.11,0H40.58a1.55,1.55,0,1,0-3.1,0v3h9Z" fill="none" stroke="#f09c22" stroke-linejoin="round" stroke-width="2.25"/><path d="M66.39,57.22a1.55,1.55,0,0,0-3.1,0H60.46a1.55,1.55,0,0,0-3.1,0v3h9Z" fill="none" stroke="#f09c22" stroke-linejoin="round" stroke-width="2.25"/><path d="M46.52,37.74a1.56,1.56,0,0,1-3.11,0H40.58a1.55,1.55,0,1,1-3.1,0v-3h9Z" fill="none" stroke="#f09c22" stroke-linejoin="round" stroke-width="2.25"/><path d="M66.39,37.74a1.55,1.55,0,1,1-3.1,0H60.46a1.55,1.55,0,0,1-3.1,0v-3h9Z" fill="none" stroke="#f09c22" stroke-linejoin="round" stroke-width="2.25"/><line x1="19.16" y1="39.29" x2="19.16" y2="55.67" fill="none" stroke="#f09c22" stroke-linejoin="round" stroke-width="2.25"/><line x1="25.09" y1="39.29" x2="25.09" y2="55.67" fill="none" stroke="#f09c22" stroke-linejoin="round" stroke-width="2.25"/><line x1="39.03" y1="39.29" x2="39.03" y2="55.67" fill="none" stroke="#f09c22" stroke-linejoin="round" stroke-width="2.25"/><line x1="44.97" y1="39.29" x2="44.97" y2="55.67" fill="none" stroke="#f09c22" stroke-linejoin="round" stroke-width="2.25"/><line x1="58.91" y1="39.29" x2="58.91" y2="55.67" fill="none" stroke="#f09c22" stroke-linejoin="round" stroke-width="2.25"/><line x1="64.84" y1="39.29" x2="64.84" y2="55.67" fill="none" stroke="#f09c22" stroke-linejoin="round" stroke-width="2.25"/><path d="M70.5,68.66h-57a3.88,3.88,0,0,1,3.88-3.87H66.62A3.88,3.88,0,0,1,70.5,68.66Z" fill="none" stroke="#f09c22" stroke-linejoin="round" stroke-width="2.25"/></g></g></svg>