<svg xmlns="http://www.w3.org/2000/svg" viewBox="0 0 84 84"><g id="Layer_2" data-name="Layer 2"><g id="Layer_1-2" data-name="Layer 1"><rect width="84" height="84" fill="none"/><path d="M67.25,36.42H56.06a5.58,5.58,0,0,0,0,11.16H67.25a5.58,5.58,0,0,0,0-11.16Z" fill="none" stroke="#f09c22" stroke-linejoin="round" stroke-width="2.59"/><path d="M70,36.42V23.32a5.74,5.74,0,0,0-5.73-5.73H16.9a5.74,5.74,0,0,0-5.73,5.73V60.68a5.74,5.74,0,0,0,5.73,5.73H64.23A5.74,5.74,0,0,0,70,60.68V47.58" fill="none" stroke="#f09c22" stroke-linejoin="round" stroke-width="2.59"/><path d="M58.05,66.41a5.74,5.74,0,0,0,5.73-5.73V47.58" fill="none" stroke="#f09c22" stroke-linejoin="round" stroke-width="2.59"/><path d="M63.78,36.42V23.32a5.74,5.74,0,0,0-5.73-5.73" fill="none" stroke="#f09c22" stroke-linejoin="round" stroke-width="2.59"/><path d="M59,42a2.49,2.49,0,1,0-2.48,2.49A2.49,2.49,0,0,0,59,42Z" fill="none" stroke="#f09c22" stroke-linejoin="round" stroke-width="2.59"/><polygon points="26.34 49.41 26.34 49.5 21.03 51.68 21.03 53.74 28.93 53.74 28.93 52.12 23.77 52.12 23.77 52.05 28.89 50.01 28.89 48.9 23.79 46.86 23.79 46.79 28.93 46.79 28.93 45.17 21.03 45.17 21.03 47.23 26.34 49.41" fill="#f09c22"/><path d="M25.83,39.17a2.19,2.19,0,0,0-.87-1,2.53,2.53,0,0,0-1.35-.34,2.69,2.69,0,0,0-1.36.33,2.28,2.28,0,0,0-.9,1A3.45,3.45,0,0,0,21,40.68V43.8h7.9V42.13h-2.8V40.91l2.8-1.5V37.57l-3.07,1.68Zm-3.44,3V41a1.87,1.87,0,0,1,.15-.8,1,1,0,0,1,.41-.47,1.24,1.24,0,0,1,.66-.16,1.18,1.18,0,0,1,.65.16.93.93,0,0,1,.4.47,2.25,2.25,0,0,1,.13.79v1.14Z" fill="#f09c22"/><path d="M21,31.79h5a1.61,1.61,0,0,1,.8.2,1.41,1.41,0,0,1,.55.56,1.89,1.89,0,0,1,0,1.69,1.41,1.41,0,0,1-.55.56,1.61,1.61,0,0,1-.8.2H21v1.67h5.13a2.77,2.77,0,0,0,1.51-.41,2.74,2.74,0,0,0,1-1.14,4.29,4.29,0,0,0,0-3.44,2.83,2.83,0,0,0-1-1.15,2.77,2.77,0,0,0-1.51-.41H21Z" fill="#f09c22"/><line x1="41.22" y1="30.14" x2="41.22" y2="53.87" fill="none" stroke="#f09c22" stroke-linejoin="round" stroke-width="3.42"/><line x1="34.54" y1="30.14" x2="34.54" y2="53.87" fill="none" stroke="#f09c22" stroke-linejoin="round" stroke-width="3.42"/></g></g></svg>